<?xml version="1.0" encoding="UTF-8"?>
<!--Generator: Apple Native CoreSVG 149-->
<!DOCTYPE svg
PUBLIC "-//W3C//DTD SVG 1.1//EN"
       "http://www.w3.org/Graphics/SVG/1.1/DTD/svg11.dtd">
<svg version="1.1" xmlns="http://www.w3.org/2000/svg" xmlns:xlink="http://www.w3.org/1999/xlink" width="3300" height="2200">
 <!--glyph: "uni100D68.medium", point size: 100.000000, font version: "Version 16.0d18e1", template writer version: "8"-->
 <g id="Notes">
  <rect height="2200" id="artboard" style="fill:white;opacity:1" width="3300" x="0" y="0"/>
  <line id="" style="fill:none;stroke:black;opacity:1;stroke-width:0.5;" x1="263" x2="3036" y1="292" y2="292"/>
  <text style="stroke:none;fill:black;font-family:-apple-system,&quot;SF Pro Display&quot;,&quot;SF Pro Text&quot;,Helvetica,sans-serif;font-weight:bold;" transform="matrix(1 0 0 1 263 322)">Weight/Scale Variations</text>
  <text style="stroke:none;fill:black;font-family:-apple-system,&quot;SF Pro Display&quot;,&quot;SF Pro Text&quot;,Helvetica,sans-serif;text-anchor:middle;" transform="matrix(1 0 0 1 559.711 322)">Ultralight</text>
  <text style="stroke:none;fill:black;font-family:-apple-system,&quot;SF Pro Display&quot;,&quot;SF Pro Text&quot;,Helvetica,sans-serif;text-anchor:middle;" transform="matrix(1 0 0 1 856.422 322)">Thin</text>
  <text style="stroke:none;fill:black;font-family:-apple-system,&quot;SF Pro Display&quot;,&quot;SF Pro Text&quot;,Helvetica,sans-serif;text-anchor:middle;" transform="matrix(1 0 0 1 1153.13 322)">Light</text>
  <text style="stroke:none;fill:black;font-family:-apple-system,&quot;SF Pro Display&quot;,&quot;SF Pro Text&quot;,Helvetica,sans-serif;text-anchor:middle;" transform="matrix(1 0 0 1 1449.84 322)">Regular</text>
  <text style="stroke:none;fill:black;font-family:-apple-system,&quot;SF Pro Display&quot;,&quot;SF Pro Text&quot;,Helvetica,sans-serif;text-anchor:middle;" transform="matrix(1 0 0 1 1746.56 322)">Medium</text>
  <text style="stroke:none;fill:black;font-family:-apple-system,&quot;SF Pro Display&quot;,&quot;SF Pro Text&quot;,Helvetica,sans-serif;text-anchor:middle;" transform="matrix(1 0 0 1 2043.27 322)">Semibold</text>
  <text style="stroke:none;fill:black;font-family:-apple-system,&quot;SF Pro Display&quot;,&quot;SF Pro Text&quot;,Helvetica,sans-serif;text-anchor:middle;" transform="matrix(1 0 0 1 2339.98 322)">Bold</text>
  <text style="stroke:none;fill:black;font-family:-apple-system,&quot;SF Pro Display&quot;,&quot;SF Pro Text&quot;,Helvetica,sans-serif;text-anchor:middle;" transform="matrix(1 0 0 1 2636.69 322)">Heavy</text>
  <text style="stroke:none;fill:black;font-family:-apple-system,&quot;SF Pro Display&quot;,&quot;SF Pro Text&quot;,Helvetica,sans-serif;text-anchor:middle;" transform="matrix(1 0 0 1 2933.4 322)">Black</text>
  <line id="" style="fill:none;stroke:black;opacity:1;stroke-width:0.5;" x1="263" x2="3036" y1="1903" y2="1903"/>
  <g id="" transform="matrix(1 0 0 1 263 1933)">
   <path d="M9.24805 0.830078C13.5547 0.830078 17.1387-2.74414 17.1387-7.05078C17.1387-11.3574 13.5449-14.9316 9.23828-14.9316C4.94141-14.9316 1.36719-11.3574 1.36719-7.05078C1.36719-2.74414 4.95117 0.830078 9.24805 0.830078ZM9.24805-0.654297C5.70312-0.654297 2.87109-3.49609 2.87109-7.05078C2.87109-10.6055 5.69336-13.4473 9.23828-13.4473C12.793-13.4473 15.6348-10.6055 15.6445-7.05078C15.6543-3.49609 12.8027-0.654297 9.24805-0.654297ZM6.39648-6.31836L8.50586-6.31836L8.50586-4.19922C8.50586-3.75977 8.79883-3.45703 9.22852-3.45703C9.67773-3.45703 9.9707-3.75977 9.9707-4.19922L9.9707-6.31836L12.0996-6.31836C12.5391-6.31836 12.8418-6.61133 12.8418-7.04102C12.8418-7.48047 12.5391-7.7832 12.0996-7.7832L9.9707-7.7832L9.9707-9.89258C9.9707-10.3418 9.67773-10.6445 9.22852-10.6445C8.79883-10.6445 8.50586-10.3418 8.50586-9.89258L8.50586-7.7832L6.39648-7.7832C5.94727-7.7832 5.64453-7.48047 5.64453-7.04102C5.64453-6.61133 5.94727-6.31836 6.39648-6.31836Z"/>
  </g>
  <g id="" transform="matrix(1 0 0 1 281.506 1933)">
   <path d="M11.709 2.91016C17.1582 2.91016 21.6699-1.61133 21.6699-7.05078C21.6699-12.5 17.1484-17.0117 11.6992-17.0117C6.25977-17.0117 1.74805-12.5 1.74805-7.05078C1.74805-1.61133 6.26953 2.91016 11.709 2.91016ZM11.709 1.25C7.09961 1.25 3.41797-2.44141 3.41797-7.05078C3.41797-11.6602 7.08984-15.3516 11.6992-15.3516C16.3086-15.3516 20-11.6602 20.0098-7.05078C20.0195-2.44141 16.3184 1.25 11.709 1.25ZM7.98828-6.23047L10.8789-6.23047L10.8789-3.32031C10.8789-2.83203 11.2109-2.5 11.6895-2.5C12.1777-2.5 12.5195-2.83203 12.5195-3.32031L12.5195-6.23047L15.4297-6.23047C15.918-6.23047 16.25-6.5625 16.25-7.04102C16.25-7.5293 15.918-7.87109 15.4297-7.87109L12.5195-7.87109L12.5195-10.7617C12.5195-11.2695 12.1777-11.6016 11.6895-11.6016C11.2109-11.6016 10.8789-11.2598 10.8789-10.7617L10.8789-7.87109L7.98828-7.87109C7.48047-7.87109 7.14844-7.5293 7.14844-7.04102C7.14844-6.5625 7.49023-6.23047 7.98828-6.23047Z"/>
  </g>
  <g id="" transform="matrix(1 0 0 1 304.924 1933)">
   <path d="M14.9707 5.66406C21.9336 5.66406 27.6953-0.0976562 27.6953-7.05078C27.6953-14.0137 21.9238-19.7754 14.9609-19.7754C8.00781-19.7754 2.25586-14.0137 2.25586-7.05078C2.25586-0.0976562 8.01758 5.66406 14.9707 5.66406ZM14.9707 3.84766C8.93555 3.84766 4.08203-1.01562 4.08203-7.05078C4.08203-13.0957 8.92578-17.9492 14.9609-17.9492C21.0059-17.9492 25.8594-13.0957 25.8691-7.05078C25.8789-1.01562 21.0156 3.84766 14.9707 3.84766ZM10.0586-6.14258L14.0625-6.14258L14.0625-2.12891C14.0625-1.5918 14.4336-1.2207 14.9512-1.2207C15.4883-1.2207 15.8594-1.5918 15.8594-2.12891L15.8594-6.14258L19.8828-6.14258C20.4102-6.14258 20.791-6.51367 20.791-7.03125C20.791-7.56836 20.4199-7.94922 19.8828-7.94922L15.8594-7.94922L15.8594-11.9531C15.8594-12.5098 15.4883-12.8809 14.9512-12.8809C14.4336-12.8809 14.0625-12.5 14.0625-11.9531L14.0625-7.94922L10.0586-7.94922C9.50195-7.94922 9.13086-7.56836 9.13086-7.03125C9.13086-6.51367 9.51172-6.14258 10.0586-6.14258Z"/>
  </g>
  <text style="stroke:none;fill:black;font-family:-apple-system,&quot;SF Pro Display&quot;,&quot;SF Pro Text&quot;,Helvetica,sans-serif;font-weight:bold;" transform="matrix(1 0 0 1 263 1953)">Design Variations</text>
  <text style="stroke:none;fill:black;font-family:-apple-system,&quot;SF Pro Display&quot;,&quot;SF Pro Text&quot;,Helvetica,sans-serif;" transform="matrix(1 0 0 1 263 1971)">Symbols are supported in up to nine weights and three scales.</text>
  <text style="stroke:none;fill:black;font-family:-apple-system,&quot;SF Pro Display&quot;,&quot;SF Pro Text&quot;,Helvetica,sans-serif;" transform="matrix(1 0 0 1 263 1989)">For optimal layout with text and other symbols, vertically align</text>
  <text style="stroke:none;fill:black;font-family:-apple-system,&quot;SF Pro Display&quot;,&quot;SF Pro Text&quot;,Helvetica,sans-serif;" transform="matrix(1 0 0 1 263 2007)">symbols with the adjacent text.</text>
  <line id="" style="fill:none;stroke:#00AEEF;stroke-width:0.5;opacity:1.0;" x1="776" x2="776" y1="1919" y2="1933"/>
  <g id="" transform="matrix(1 0 0 1 776 1933)">
   <path d="M3.31055 0.126953C3.82812 0.126953 4.08203-0.0683594 4.26758-0.605469L5.52734-4.0625L11.2891-4.0625L12.5488-0.605469C12.7344-0.0683594 12.9883 0.126953 13.4961 0.126953C14.0137 0.126953 14.3457-0.185547 14.3457-0.673828C14.3457-0.839844 14.3164-0.986328 14.2383-1.20117L9.6582-13.3887C9.43359-13.9941 9.0332-14.2871 8.4082-14.2871C7.80273-14.2871 7.39258-13.9941 7.17773-13.3984L2.59766-1.19141C2.51953-0.976562 2.49023-0.830078 2.49023-0.664062C2.49023-0.175781 2.80273 0.126953 3.31055 0.126953ZM6.00586-5.53711L8.37891-12.1094L8.42773-12.1094L10.8008-5.53711Z"/>
  </g>
  <line id="" style="fill:none;stroke:#00AEEF;stroke-width:0.5;opacity:1.0;" x1="792.836" x2="792.836" y1="1919" y2="1933"/>
  <text style="stroke:none;fill:black;font-family:-apple-system,&quot;SF Pro Display&quot;,&quot;SF Pro Text&quot;,Helvetica,sans-serif;font-weight:bold;" transform="matrix(1 0 0 1 776 1953)">Margins</text>
  <text style="stroke:none;fill:black;font-family:-apple-system,&quot;SF Pro Display&quot;,&quot;SF Pro Text&quot;,Helvetica,sans-serif;" transform="matrix(1 0 0 1 776 1971)">Leading and trailing margins on the left and right side of each symbol</text>
  <text style="stroke:none;fill:black;font-family:-apple-system,&quot;SF Pro Display&quot;,&quot;SF Pro Text&quot;,Helvetica,sans-serif;" transform="matrix(1 0 0 1 776 1989)">can be adjusted by modifying the x-location of the margin guidelines.</text>
  <text style="stroke:none;fill:black;font-family:-apple-system,&quot;SF Pro Display&quot;,&quot;SF Pro Text&quot;,Helvetica,sans-serif;" transform="matrix(1 0 0 1 776 2007)">Modifications are automatically applied proportionally to all</text>
  <text style="stroke:none;fill:black;font-family:-apple-system,&quot;SF Pro Display&quot;,&quot;SF Pro Text&quot;,Helvetica,sans-serif;" transform="matrix(1 0 0 1 776 2025)">scales and weights.</text>
  <g id="" transform="matrix(1 0 0 1 1289 1933)">
   <path d="M2.8418 1.86523L4.54102 3.57422C5.40039 4.44336 6.38672 4.38477 7.31445 3.35938L17.4902-7.85156C17.7539-7.76367 18.0273-7.7832 18.3398-7.8418L19.4043-8.03711L20.0684-7.36328L20.0293-6.80664C19.9902-6.30859 20.1172-5.92773 20.6055-5.44922L21.3672-4.70703C21.8457-4.22852 22.4609-4.19922 22.9297-4.66797L25.8398-7.58789C26.3086-8.05664 26.2891-8.65234 25.8105-9.13086L25.0391-9.89258C24.5605-10.3711 24.1895-10.5273 23.7109-10.4883L23.1348-10.4395L22.4902-11.0742L22.7344-12.1973C22.8613-12.7637 22.7051-13.2031 22.1191-13.7891L19.9219-15.9766C16.582-19.2969 12.1484-19.2188 9.25781-16.3281C8.83789-15.918 8.80859-15.3418 9.04297-14.9512C9.27734-14.5898 9.73633-14.3555 10.3809-14.5215C11.8457-14.8633 13.3691-14.9219 14.7949-13.9844L14.209-12.5293C14.0137-12.0508 13.9844-11.6504 14.1113-11.2891L3.04688-0.898438C2.06055 0.0195312 1.98242 0.996094 2.8418 1.86523ZM10.752-15.957C13.1836-17.7344 16.4746-17.4316 18.7012-15.2051L21.1328-12.793C21.3672-12.5586 21.4062-12.373 21.3379-12.0312L21.0156-10.5469L22.5195-9.0625L23.5059-9.12109C23.7598-9.13086 23.8379-9.11133 24.0332-8.91602L24.6094-8.33984L22.168-5.89844L21.5918-6.47461C21.3965-6.66992 21.3672-6.74805 21.377-7.01172L21.4453-7.98828L19.9512-9.47266L18.4277-9.21875C18.1055-9.15039 17.959-9.17969 17.7148-9.41406L15.7129-11.416C15.459-11.6504 15.4297-11.8164 15.5859-12.1875L16.4648-14.2773C14.9023-15.7324 12.8711-16.3574 10.8398-15.7617C10.6836-15.7227 10.625-15.8496 10.752-15.957ZM5.27344 2.30469L4.10156 1.14258C3.63281 0.683594 3.74023 0.341797 4.14062-0.0195312L14.9512-10.1953L16.416-8.71094L6.42578 2.27539C6.07422 2.67578 5.74219 2.77344 5.27344 2.30469Z"/>
  </g>
  <text style="stroke:none;fill:black;font-family:-apple-system,&quot;SF Pro Display&quot;,&quot;SF Pro Text&quot;,Helvetica,sans-serif;font-weight:bold;" transform="matrix(1 0 0 1 1289 1953)">Exporting</text>
  <text style="stroke:none;fill:black;font-family:-apple-system,&quot;SF Pro Display&quot;,&quot;SF Pro Text&quot;,Helvetica,sans-serif;" transform="matrix(1 0 0 1 1289 1971)">Symbols should be outlined when exporting to ensure the</text>
  <text style="stroke:none;fill:black;font-family:-apple-system,&quot;SF Pro Display&quot;,&quot;SF Pro Text&quot;,Helvetica,sans-serif;" transform="matrix(1 0 0 1 1289 1989)">design is preserved when submitting to Xcode.</text>
  <text id="template-version" style="stroke:none;fill:black;font-family:-apple-system,&quot;SF Pro Display&quot;,&quot;SF Pro Text&quot;,Helvetica,sans-serif;text-anchor:end;" transform="matrix(1 0 0 1 3036 1933)">Template v.2.0</text>
  <text style="stroke:none;fill:black;font-family:-apple-system,&quot;SF Pro Display&quot;,&quot;SF Pro Text&quot;,Helvetica,sans-serif;text-anchor:end;" transform="matrix(1 0 0 1 3036 1951)">Requires Xcode 12 or greater</text>
  <text style="stroke:none;fill:black;font-family:-apple-system,&quot;SF Pro Display&quot;,&quot;SF Pro Text&quot;,Helvetica,sans-serif;text-anchor:end;" transform="matrix(1 0 0 1 3036 1969)">Generated from play.tv</text>
  <text style="stroke:none;fill:black;font-family:-apple-system,&quot;SF Pro Display&quot;,&quot;SF Pro Text&quot;,Helvetica,sans-serif;text-anchor:end;" transform="matrix(1 0 0 1 3036 1987)">Typeset at 100 points</text>
  <text style="stroke:none;fill:black;font-family:-apple-system,&quot;SF Pro Display&quot;,&quot;SF Pro Text&quot;,Helvetica,sans-serif;" transform="matrix(1 0 0 1 263 726)">Small</text>
  <text style="stroke:none;fill:black;font-family:-apple-system,&quot;SF Pro Display&quot;,&quot;SF Pro Text&quot;,Helvetica,sans-serif;" transform="matrix(1 0 0 1 263 1156)">Medium</text>
  <text style="stroke:none;fill:black;font-family:-apple-system,&quot;SF Pro Display&quot;,&quot;SF Pro Text&quot;,Helvetica,sans-serif;" transform="matrix(1 0 0 1 263 1586)">Large</text>
 </g>
 <g id="Guides">
  <g id="H-reference" style="fill:#27AAE1;stroke:none;" transform="matrix(1 0 0 1 339 696)">
   <path d="M0.976562 0L3.66211 0L12.9883-24.4629L45.752-24.4629L55.127 0L57.7637 0L30.6152-70.459L28.125-70.459ZM29.3457-67.1387L29.4434-67.1387L44.873-26.709L13.8672-26.709Z"/>
  </g>
  <line id="Baseline-S" style="fill:none;stroke:#27AAE1;opacity:1;stroke-width:0.5;" x1="263" x2="3036" y1="696" y2="696"/>
  <line id="Capline-S" style="fill:none;stroke:#27AAE1;opacity:1;stroke-width:0.5;" x1="263" x2="3036" y1="625.541" y2="625.541"/>
  <g id="H-reference" style="fill:#27AAE1;stroke:none;" transform="matrix(1 0 0 1 339 1126)">
   <path d="M0.976562 0L3.66211 0L12.9883-24.4629L45.752-24.4629L55.127 0L57.7637 0L30.6152-70.459L28.125-70.459ZM29.3457-67.1387L29.4434-67.1387L44.873-26.709L13.8672-26.709Z"/>
  </g>
  <line id="Baseline-M" style="fill:none;stroke:#27AAE1;opacity:1;stroke-width:0.5;" x1="263" x2="3036" y1="1126" y2="1126"/>
  <line id="Capline-M" style="fill:none;stroke:#27AAE1;opacity:1;stroke-width:0.5;" x1="263" x2="3036" y1="1055.54" y2="1055.54"/>
  <g id="H-reference" style="fill:#27AAE1;stroke:none;" transform="matrix(1 0 0 1 339 1556)">
   <path d="M0.976562 0L3.66211 0L12.9883-24.4629L45.752-24.4629L55.127 0L57.7637 0L30.6152-70.459L28.125-70.459ZM29.3457-67.1387L29.4434-67.1387L44.873-26.709L13.8672-26.709Z"/>
  </g>
  <line id="Baseline-L" style="fill:none;stroke:#27AAE1;opacity:1;stroke-width:0.5;" x1="263" x2="3036" y1="1556" y2="1556"/>
  <line id="Capline-L" style="fill:none;stroke:#27AAE1;opacity:1;stroke-width:0.5;" x1="263" x2="3036" y1="1485.54" y2="1485.54"/>
  <line id="left-margin" style="fill:none;stroke:#00AEEF;stroke-width:0.5;opacity:1.0;" x1="1376.43" x2="1376.43" y1="1030.79" y2="1150.12"/>
  <line id="right-margin" style="fill:none;stroke:#00AEEF;stroke-width:0.5;opacity:1.0;" x1="1523.26" x2="1523.26" y1="1030.79" y2="1150.12"/>
 </g>
 <g id="Symbols">
  <g id="Black-L" transform="matrix(1 0 0 1 2832.25 1556)">
   <path d="M37.6953 11.377L164.6 11.377C178.418 11.377 186.23 3.61328 186.23-10.2539L186.23-84.1797C186.23-98.0957 178.418-105.811 164.6-105.811L37.6953-105.811C23.877-105.811 16.0645-98.0957 16.0645-84.1797L16.0645-10.2539C16.0645 3.61328 23.877 11.377 37.6953 11.377ZM40.1855-7.56836C36.6699-7.56836 35.0098-8.98438 35.0098-12.7441L35.0098-81.6895C35.0098-85.498 36.6699-86.8652 40.1855-86.8652L162.109-86.8652C165.625-86.8652 167.285-85.498 167.285-81.6895L167.285-12.7441C167.285-8.98438 165.625-7.56836 162.109-7.56836ZM86.5723-18.3594C88.3789-18.3594 89.9902-18.8477 91.748-19.7754L126.416-40.0391C129.443-41.748 131.592-43.9941 131.592-47.3145C131.592-50.5859 129.541-52.5879 126.416-54.4922L91.748-74.7559C89.9902-75.6836 88.3301-76.1719 86.4746-76.1719C82.5195-76.1719 79.2969-73.2422 79.2969-68.1152L79.2969-26.416C79.2969-21.3379 82.6172-18.3594 86.5723-18.3594ZM66.9922 36.084L135.352 36.084C139.795 36.084 143.359 32.3242 143.359 28.125C143.359 23.9258 139.795 20.166 135.352 20.166L66.9922 20.166C62.5 20.166 58.9844 23.9258 58.9844 28.125C58.9844 32.3242 62.5 36.084 66.9922 36.084Z"/>
  </g>
  <g id="Heavy-L" transform="matrix(1 0 0 1 2537.37 1556)">
   <path d="M36.1816 10.1562L162.451 10.1562C175.391 10.1562 182.568 3.07617 182.568-9.96094L182.568-83.5449C182.568-96.6309 175.391-103.711 162.451-103.711L36.1816-103.711C23.2422-103.711 16.0645-96.6309 16.0645-83.5449L16.0645-9.96094C16.0645 3.07617 23.2422 10.1562 36.1816 10.1562ZM38.1348-6.39648C34.375-6.39648 32.5684-7.91016 32.5684-11.9141L32.5684-81.6406C32.5684-85.6445 34.375-87.1582 38.1348-87.1582L160.498-87.1582C164.258-87.1582 166.064-85.6445 166.064-81.6406L166.064-11.9141C166.064-7.91016 164.258-6.39648 160.498-6.39648ZM84.4727-17.9688C86.2305-17.9688 87.7441-18.457 89.3555-19.3359L124.854-40.1367C127.686-41.748 129.541-43.8477 129.541-46.8262C129.541-49.8047 127.783-51.709 124.854-53.4668L89.3555-74.2676C87.7441-75.1465 86.1816-75.6348 84.4238-75.6348C80.7617-75.6348 77.7832-72.9492 77.7832-68.1152L77.7832-25.4883C77.7832-20.7031 80.8105-17.9688 84.4727-17.9688ZM65.8691 33.7402L132.764 33.7402C136.768 33.7402 139.941 30.4199 139.941 26.6602C139.941 22.8516 136.768 19.5312 132.764 19.5312L65.8691 19.5312C61.9141 19.5312 58.7402 22.8516 58.7402 26.6602C58.7402 30.4199 61.9141 33.7402 65.8691 33.7402Z"/>
  </g>
  <g id="Bold-L" transform="matrix(1 0 0 1 2242.71 1556)">
   <path d="M34.5215 8.78906L160.01 8.78906C172.021 8.78906 178.467 2.44141 178.467-9.66797L178.467-82.8613C178.467-94.9707 172.021-101.318 160.01-101.318L34.5215-101.318C22.5586-101.318 16.0645-94.9707 16.0645-82.8613L16.0645-9.66797C16.0645 2.44141 22.5586 8.78906 34.5215 8.78906ZM35.8398-5.0293C31.7871-5.0293 29.8828-6.73828 29.8828-10.9863L29.8828-81.543C29.8828-85.791 31.7871-87.5 35.8398-87.5L158.691-87.5C162.793-87.5 164.648-85.791 164.648-81.543L164.648-10.9863C164.648-6.73828 162.793-5.0293 158.691-5.0293ZM82.1777-17.5293C83.7891-17.5293 85.1562-18.0176 86.7188-18.8965L123.096-40.2344C125.732-41.748 127.295-43.7012 127.295-46.3379C127.295-48.9258 125.781-50.7324 123.096-52.3438L86.7188-73.6816C85.1562-74.5605 83.7402-75.0488 82.1289-75.0488C78.8086-75.0488 76.0742-72.5586 76.0742-68.0664L76.0742-24.5117C76.0742-20.0195 78.8574-17.5293 82.1777-17.5293ZM64.6484 31.1523L129.932 31.1523C133.35 31.1523 136.084 28.2715 136.084 25C136.084 21.6797 133.35 18.7988 129.932 18.7988L64.6484 18.7988C61.1816 18.7988 58.4473 21.6797 58.4473 25C58.4473 28.2715 61.1816 31.1523 64.6484 31.1523Z"/>
  </g>
  <g id="Semibold-L" transform="matrix(1 0 0 1 1947.42 1556)">
   <path d="M33.3496 7.86133L158.35 7.86133C169.678 7.86133 175.635 2.00195 175.635-9.47266L175.635-82.373C175.635-93.8477 169.678-99.6582 158.35-99.6582L33.3496-99.6582C22.0215-99.6582 16.0645-93.8477 16.0645-82.373L16.0645-9.47266C16.0645 2.00195 22.0215 7.86133 33.3496 7.86133ZM34.2773-4.10156C29.9805-4.10156 27.9785-5.9082 27.9785-10.3516L27.9785-81.4941C27.9785-85.9375 29.9805-87.7441 34.2773-87.7441L157.422-87.7441C161.719-87.7441 163.721-85.9375 163.721-81.4941L163.721-10.3516C163.721-5.9082 161.719-4.10156 157.422-4.10156ZM80.5664-17.2363C82.0801-17.2363 83.3984-17.7246 84.8633-18.5547L121.875-40.2832C124.365-41.748 125.781-43.5547 125.781-45.9473C125.781-48.3398 124.414-50.0488 121.875-51.5625L84.8633-73.3398C83.3984-74.1211 82.0801-74.6094 80.5176-74.6094C77.4414-74.6094 74.8535-72.3633 74.8535-68.0664L74.8535-23.7793C74.8535-19.5312 77.4902-17.2363 80.5664-17.2363ZM63.7695 29.3457L127.93 29.3457C131.006 29.3457 133.447 26.8066 133.447 23.8281C133.447 20.8496 131.006 18.3105 127.93 18.3105L63.7695 18.3105C60.7422 18.3105 58.252 20.8496 58.252 23.8281C58.252 26.8066 60.7422 29.3457 63.7695 29.3457Z"/>
  </g>
  <g id="Medium-L" transform="matrix(1 0 0 1 1651.78 1556)">
   <path d="M32.4707 7.12891L157.08 7.12891C167.92 7.12891 173.486 1.70898 173.486-9.27734L173.486-82.0312C173.486-93.0176 167.92-98.4375 157.08-98.4375L32.4707-98.4375C21.6797-98.4375 16.0645-93.0176 16.0645-82.0312L16.0645-9.27734C16.0645 1.70898 21.6797 7.12891 32.4707 7.12891ZM33.0566-3.36914C28.6133-3.36914 26.5625-5.27344 26.5625-9.86328L26.5625-81.4453C26.5625-86.0352 28.6133-87.8906 33.0566-87.8906L156.494-87.8906C160.938-87.8906 162.988-86.0352 162.988-81.4453L162.988-9.86328C162.988-5.27344 160.938-3.36914 156.494-3.36914ZM79.3457-16.9922C80.8105-16.9922 82.0801-17.5293 83.4473-18.3105L120.947-40.332C123.34-41.748 124.609-43.457 124.609-45.7031C124.609-47.8516 123.389-49.5117 120.947-50.9766L83.4473-73.0469C82.0801-73.8281 80.8105-74.3164 79.3457-74.3164C76.416-74.3164 73.9746-72.168 73.9746-68.0664L73.9746-23.2422C73.9746-19.1895 76.416-16.9922 79.3457-16.9922ZM63.1348 27.9297L126.416 27.9297C129.199 27.9297 131.445 25.6836 131.445 22.998C131.445 20.2148 129.199 17.9688 126.416 17.9688L63.1348 17.9688C60.3516 17.9688 58.1055 20.2148 58.1055 22.998C58.1055 25.6836 60.3516 27.9297 63.1348 27.9297Z"/>
  </g>
  <g id="Regular-L" transform="matrix(1 0 0 1 1356.46 1556)">
   <path d="M31.3477 6.20117L155.42 6.20117C165.576 6.20117 170.703 1.26953 170.703-9.08203L170.703-81.543C170.703-91.8945 165.576-96.7773 155.42-96.7773L31.3477-96.7773C21.1914-96.7773 16.0645-91.8945 16.0645-81.543L16.0645-9.08203C16.0645 1.26953 21.1914 6.20117 31.3477 6.20117ZM31.4941-2.44141C26.8555-2.44141 24.707-4.49219 24.707-9.22852L24.707-81.3477C24.707-86.1328 26.8555-88.1348 31.4941-88.1348L155.225-88.1348C159.912-88.1348 162.061-86.1328 162.061-81.3477L162.061-9.22852C162.061-4.49219 159.912-2.44141 155.225-2.44141ZM77.7344-16.6992C79.1504-16.6992 80.3223-17.2363 81.6406-17.9688L119.775-40.3809C122.021-41.6992 123.047-43.3594 123.047-45.3125C123.047-47.2656 122.021-48.8281 119.775-50.2441L81.6406-72.6562C80.3223-73.3887 79.1504-73.9258 77.7344-73.9258C75.0977-73.9258 72.8027-71.9238 72.8027-68.0664L72.8027-22.5586C72.8027-18.7012 75.0977-16.6992 77.7344-16.6992ZM62.3047 26.1719L124.463 26.1719C126.904 26.1719 128.857 24.2188 128.857 21.8262C128.857 19.3848 126.904 17.4805 124.463 17.4805L62.3047 17.4805C59.8633 17.4805 57.9102 19.3848 57.9102 21.8262C57.9102 24.2188 59.8633 26.1719 62.3047 26.1719Z"/>
  </g>
  <g id="Light-L" transform="matrix(1 0 0 1 1061.61 1556)">
   <path d="M30.0781 6.00586L152.979 6.00586C162.305 6.00586 166.992 1.46484 166.992-7.95898L166.992-80.7617C166.992-90.1855 162.305-94.7754 152.979-94.7754L30.0781-94.7754C20.752-94.7754 16.0645-90.1855 16.0645-80.7617L16.0645-7.95898C16.0645 1.46484 20.752 6.00586 30.0781 6.00586ZM30.2734-0.585938C25.1465-0.585938 22.7051-2.92969 22.7051-8.1543L22.7051-80.6152C22.7051-85.8398 25.1465-88.1348 30.2734-88.1348L152.783-88.1348C157.959-88.1348 160.4-85.8398 160.4-80.6152L160.4-8.1543C160.4-2.92969 157.959-0.585938 152.783-0.585938ZM75.293-15.7715C76.5625-15.7715 77.7344-16.3086 78.8574-16.9434L118.213-40.0879C120.068-41.2109 121.045-42.627 121.045-44.4336C121.045-46.1914 120.117-47.5098 118.213-48.6816L78.8574-71.875C77.7344-72.5098 76.5625-73.0469 75.293-73.0469C72.9004-73.0469 70.752-71.2402 70.752-67.627L70.752-21.1914C70.752-17.5781 72.9004-15.7715 75.293-15.7715ZM61.1328 24.1699L121.973 24.1699C123.828 24.1699 125.293 22.7051 125.293 20.8496C125.293 18.9453 123.828 17.4805 121.973 17.4805L61.1328 17.4805C59.2773 17.4805 57.7637 18.9453 57.7637 20.8496C57.7637 22.7051 59.2773 24.1699 61.1328 24.1699Z"/>
  </g>
  <g id="Thin-L" transform="matrix(1 0 0 1 767.335 1556)">
   <path d="M28.418 5.81055L149.756 5.81055C157.959 5.81055 162.109 1.66016 162.109-6.54297L162.109-79.7852C162.109-87.9883 157.959-92.0898 149.756-92.0898L28.418-92.0898C20.2148-92.0898 16.0645-87.9883 16.0645-79.7852L16.0645-6.54297C16.0645 1.66016 20.2148 5.81055 28.418 5.81055ZM28.6621 1.85547C22.8516 1.85547 19.9707-0.927734 19.9707-6.68945L19.9707-79.5898C19.9707-85.4004 22.8516-88.1836 28.6621-88.1836L149.561-88.1836C155.322-88.1836 158.203-85.4004 158.203-79.5898L158.203-6.68945C158.203-0.927734 155.322 1.85547 149.561 1.85547ZM72.0703-14.5508C73.1445-14.5508 74.2676-15.0879 75.1953-15.625L116.211-39.6973C117.529-40.5273 118.359-41.6504 118.359-43.2129C118.359-44.7266 117.627-45.8008 116.211-46.6797L75.1953-70.8008C74.2676-71.2891 73.1445-71.8262 72.0703-71.8262C70.0195-71.8262 68.0664-70.3125 68.0664-67.041L68.0664-19.3359C68.0664-16.0645 70.0195-14.5508 72.0703-14.5508ZM59.5703 21.4844L118.604 21.4844C119.775 21.4844 120.654 20.6543 120.654 19.5312C120.654 18.3594 119.775 17.5293 118.604 17.5293L59.5703 17.5293C58.4473 17.5293 57.5195 18.3594 57.5195 19.5312C57.5195 20.6543 58.4473 21.4844 59.5703 21.4844Z"/>
  </g>
  <g id="Ultralight-L" transform="matrix(1 0 0 1 471.869 1556)">
   <path d="M27.5391 5.71289L148.145 5.71289C155.713 5.71289 159.619 1.75781 159.619-5.81055L159.619-79.248C159.619-86.8164 155.713-90.7227 148.145-90.7227L27.5391-90.7227C19.9707-90.7227 16.0645-86.8164 16.0645-79.248L16.0645-5.81055C16.0645 1.75781 19.9707 5.71289 27.5391 5.71289ZM27.7832 3.125C21.6797 3.125 18.6035 0.146484 18.6035-5.95703L18.6035-79.1016C18.6035-85.2051 21.6797-88.1836 27.7832-88.1836L147.852-88.1836C154.004-88.1836 157.08-85.2051 157.08-79.1016L157.08-5.95703C157.08 0.146484 154.004 3.125 147.852 3.125ZM70.3613-13.8672C71.3867-13.8672 72.5098-14.4531 73.3398-14.8926L115.137-39.502C116.26-40.1855 116.992-41.1621 116.992-42.627C116.992-43.9941 116.309-44.873 115.137-45.6055L73.3398-70.2148C72.5098-70.7031 71.3867-71.2402 70.3613-71.2402C68.5547-71.2402 66.6504-69.873 66.6504-66.748L66.6504-18.4082C66.6504-15.2832 68.5547-13.8672 70.3613-13.8672ZM58.7891 20.1172L116.895 20.1172C117.676 20.1172 118.262 19.6289 118.262 18.8477C118.262 18.0664 117.676 17.5781 116.895 17.5781L58.7891 17.5781C58.0078 17.5781 57.4219 18.0664 57.4219 18.8477C57.4219 19.6289 58.0078 20.1172 58.7891 20.1172Z"/>
  </g>
  <g id="Black-M" transform="matrix(1 0 0 1 2853.52 1126)">
   <path d="M30.5664 2.44141L129.199 2.44141C140.576 2.44141 147.314-4.29688 147.314-15.6738L147.314-73.6328C147.314-85.0098 140.576-91.748 129.199-91.748L30.5664-91.748C19.1895-91.748 12.4512-85.0098 12.4512-73.6328L12.4512-15.6738C12.4512-4.29688 19.1895 2.44141 30.5664 2.44141ZM33.252-14.4531C30.6641-14.4531 29.3457-15.4785 29.3457-18.3594L29.3457-70.9473C29.3457-73.8281 30.6641-74.8535 33.252-74.8535L126.514-74.8535C129.102-74.8535 130.42-73.8281 130.42-70.9473L130.42-18.3594C130.42-15.4785 129.102-14.4531 126.514-14.4531ZM68.5547-22.168C70.0684-22.168 71.4355-22.5586 72.8516-23.291L99.2676-38.6719C101.66-40.0391 103.613-41.8457 103.613-44.7266C103.613-47.5586 101.758-49.2188 99.2676-50.6836L72.8516-66.0645C71.4355-66.7969 70.0195-67.1875 68.5059-67.1875C65.1855-67.1875 62.4023-64.7461 62.4023-60.498L62.4023-28.8574C62.4023-24.707 65.2344-22.168 68.5547-22.168ZM52.7832 22.1191L106.982 22.1191C110.791 22.1191 113.818 18.8477 113.818 15.332C113.818 11.8164 110.791 8.54492 106.982 8.54492L52.7832 8.54492C48.9746 8.54492 45.9473 11.8164 45.9473 15.332C45.9473 18.8477 48.9746 22.1191 52.7832 22.1191Z"/>
  </g>
  <g id="Heavy-M" transform="matrix(1 0 0 1 2558.32 1126)">
   <path d="M29.248 1.17188L127.441 1.17188C138.135 1.17188 144.287-4.93164 144.287-15.6738L144.287-73.1445C144.287-83.8379 138.135-89.9414 127.441-89.9414L29.248-89.9414C18.5547-89.9414 12.4512-83.8379 12.4512-73.1445L12.4512-15.6738C12.4512-4.93164 18.5547 1.17188 29.248 1.17188ZM31.3477-13.623C28.5645-13.623 27.1973-14.7461 27.1973-17.7246L27.1973-71.0449C27.1973-74.0723 28.5645-75.1953 31.3477-75.1953L125.391-75.1953C128.174-75.1953 129.492-74.0723 129.492-71.0449L129.492-17.7246C129.492-14.7461 128.174-13.623 125.391-13.623ZM66.9434-21.9727C68.3594-21.9727 69.6289-22.3633 70.9473-23.0957L97.9492-38.8184C100.244-40.1367 101.953-41.8945 101.953-44.4824C101.953-47.0215 100.342-48.584 97.9492-50L70.9473-65.7227C69.6289-66.4551 68.3105-66.8457 66.8945-66.8457C63.8184-66.8457 61.2793-64.5996 61.2793-60.5957L61.2793-28.2715C61.2793-24.3164 63.8672-21.9727 66.9434-21.9727ZM51.8555 20.0684L104.834 20.0684C108.301 20.0684 110.986 17.1875 110.986 13.9648C110.986 10.791 108.301 7.86133 104.834 7.86133L51.8555 7.86133C48.4375 7.86133 45.7031 10.791 45.7031 13.9648C45.7031 17.1875 48.4375 20.0684 51.8555 20.0684Z"/>
  </g>
  <g id="Bold-M" transform="matrix(1 0 0 1 2263.32 1126)">
   <path d="M27.7832-0.292969L125.537-0.292969C135.4-0.292969 140.869-5.66406 140.869-15.625L140.869-72.6074C140.869-82.5684 135.4-87.9395 125.537-87.9395L27.7832-87.9395C17.9199-87.9395 12.4512-82.5684 12.4512-72.6074L12.4512-15.625C12.4512-5.66406 17.9199-0.292969 27.7832-0.292969ZM29.1992-12.6465C26.2207-12.6465 24.8047-13.8672 24.8047-17.041L24.8047-71.1914C24.8047-74.3164 26.2207-75.5371 29.1992-75.5371L124.121-75.5371C127.1-75.5371 128.467-74.3164 128.467-71.1914L128.467-17.041C128.467-13.8672 127.1-12.6465 124.121-12.6465ZM65.1367-21.7773C66.4551-21.7773 67.5781-22.168 68.8477-22.8516L96.4844-39.0137C98.6328-40.2832 100.049-41.8945 100.049-44.1406C100.049-46.3867 98.7305-47.8516 96.4844-49.2188L68.8477-65.3809C67.5781-66.0645 66.4062-66.4551 65.0879-66.4551C62.3047-66.4551 60.0098-64.4043 60.0098-60.6934L60.0098-27.5391C60.0098-23.877 62.3535-21.7773 65.1367-21.7773ZM50.8789 17.8223L102.441 17.8223C105.469 17.8223 107.861 15.2832 107.861 12.4512C107.861 9.57031 105.469 7.08008 102.441 7.08008L50.8789 7.08008C47.8516 7.08008 45.459 9.57031 45.459 12.4512C45.459 15.2832 47.8516 17.8223 50.8789 17.8223Z"/>
  </g>
  <g id="Semibold-M" transform="matrix(1 0 0 1 1967.78 1126)">
   <path d="M26.7578-1.26953L124.17-1.26953C133.496-1.26953 138.525-6.15234 138.525-15.625L138.525-72.2168C138.525-81.6406 133.496-86.5234 124.17-86.5234L26.7578-86.5234C17.4316-86.5234 12.4512-81.6406 12.4512-72.2168L12.4512-15.625C12.4512-6.15234 17.4316-1.26953 26.7578-1.26953ZM27.7344-12.0117C24.6094-12.0117 23.1934-13.2812 23.1934-16.5527L23.1934-71.2891C23.1934-74.5117 24.6094-75.7812 27.7344-75.7812L123.242-75.7812C126.367-75.7812 127.783-74.5117 127.783-71.2891L127.783-16.5527C127.783-13.2812 126.367-12.0117 123.242-12.0117ZM63.8672-21.6797C65.1367-21.6797 66.2109-22.0215 67.3828-22.7051L95.459-39.1602C97.5586-40.3809 98.7793-41.8945 98.7793-43.9453C98.7793-45.9473 97.6074-47.3633 95.459-48.6816L67.3828-65.1367C66.2109-65.8203 65.0879-66.1621 63.8184-66.1621C61.2793-66.1621 59.1309-64.2578 59.1309-60.791L59.1309-27.0508C59.1309-23.584 61.2793-21.6797 63.8672-21.6797ZM50.1465 16.2598L100.781 16.2598C103.516 16.2598 105.664 14.0137 105.664 11.4258C105.664 8.78906 103.516 6.54297 100.781 6.54297L50.1465 6.54297C47.4609 6.54297 45.3125 8.78906 45.3125 11.4258C45.3125 14.0137 47.4609 16.2598 50.1465 16.2598Z"/>
  </g>
  <g id="Medium-M" transform="matrix(1 0 0 1 1671.97 1126)">
   <path d="M25.9766-2.05078L123.193-2.05078C132.08-2.05078 136.719-6.54297 136.719-15.5762L136.719-71.9238C136.719-80.957 132.08-85.4492 123.193-85.4492L25.9766-85.4492C17.0898-85.4492 12.4512-80.957 12.4512-71.9238L12.4512-15.5762C12.4512-6.54297 17.0898-2.05078 25.9766-2.05078ZM26.6113-11.5234C23.3887-11.5234 21.9238-12.8418 21.9238-16.1621L21.9238-71.3379C21.9238-74.6582 23.3887-75.9766 26.6113-75.9766L122.559-75.9766C125.781-75.9766 127.246-74.6582 127.246-71.3379L127.246-16.1621C127.246-12.8418 125.781-11.5234 122.559-11.5234ZM62.8906-21.5332C64.1113-21.5332 65.1367-21.9238 66.3086-22.5586L94.6777-39.2578C96.7285-40.4785 97.8027-41.9434 97.8027-43.7988C97.8027-45.6055 96.7773-47.0215 94.6777-48.2422L66.3086-64.9414C65.1367-65.5762 64.1113-65.9668 62.8906-65.9668C60.4492-65.9668 58.4473-64.1602 58.4473-60.8398L58.4473-26.709C58.4473-23.3887 60.498-21.5332 62.8906-21.5332ZM49.6094 15.0391L99.5605 15.0391C102.002 15.0391 104.004 13.0371 104.004 10.5957C104.004 8.1543 102.002 6.10352 99.5605 6.10352L49.6094 6.10352C47.168 6.10352 45.166 8.1543 45.166 10.5957C45.166 13.0371 47.168 15.0391 49.6094 15.0391Z"/>
  </g>
  <g id="Regular-M" transform="matrix(1 0 0 1 1376.43 1126)">
   <path d="M25-3.02734L121.875-3.02734C130.225-3.02734 134.375-7.03125 134.375-15.5762L134.375-71.5332C134.375-80.0781 130.225-84.082 121.875-84.082L25-84.082C16.6504-84.082 12.4512-80.0781 12.4512-71.5332L12.4512-15.5762C12.4512-7.03125 16.6504-3.02734 25-3.02734ZM25.1465-10.8887C21.7773-10.8887 20.3125-12.2559 20.3125-15.7227L20.3125-71.4355C20.3125-74.8535 21.7773-76.2207 25.1465-76.2207L121.729-76.2207C125.049-76.2207 126.514-74.8535 126.514-71.4355L126.514-15.7227C126.514-12.2559 125.049-10.8887 121.729-10.8887ZM61.6699-21.4355C62.793-21.4355 63.7207-21.8262 64.8438-22.4121L93.7012-39.4043C95.6543-40.5762 96.5332-41.9434 96.5332-43.5547C96.5332-45.166 95.6543-46.5332 93.7012-47.7051L64.8438-64.6973C63.7207-65.332 62.793-65.7227 61.6699-65.7227C59.4238-65.7227 57.6172-64.0625 57.6172-60.9375L57.6172-26.2207C57.6172-23.0957 59.4238-21.4355 61.6699-21.4355ZM48.9258 13.4766L97.9004 13.4766C100.098 13.4766 101.855 11.7188 101.855 9.57031C101.855 7.37305 100.098 5.56641 97.9004 5.56641L48.9258 5.56641C46.7773 5.56641 44.9707 7.37305 44.9707 9.57031C44.9707 11.7188 46.7773 13.4766 48.9258 13.4766Z"/>
  </g>
  <g id="Light-M" transform="matrix(1 0 0 1 1081.36 1126)">
   <path d="M23.877-3.17383L119.678-3.17383C127.246-3.17383 131.104-6.88477 131.104-14.5996L131.104-70.8496C131.104-78.5645 127.246-82.2754 119.678-82.2754L23.877-82.2754C16.2598-82.2754 12.4512-78.5645 12.4512-70.8496L12.4512-14.5996C12.4512-6.88477 16.2598-3.17383 23.877-3.17383ZM24.0234-9.22852C20.2637-9.22852 18.5059-10.8887 18.5059-14.7461L18.5059-70.752C18.5059-74.5605 20.2637-76.2207 24.0234-76.2207L119.531-76.2207C123.291-76.2207 125.049-74.5605 125.049-70.752L125.049-14.7461C125.049-10.8887 123.291-9.22852 119.531-9.22852ZM59.4727-20.5566C60.498-20.5566 61.4258-20.9961 62.3535-21.5332L92.334-39.1602C93.9453-40.0879 94.7266-41.3086 94.7266-42.7734C94.7266-44.1895 93.9453-45.3613 92.334-46.3379L62.3535-63.9648C61.4258-64.502 60.498-64.8926 59.4727-64.8926C57.4707-64.8926 55.7617-63.4277 55.7617-60.5469L55.7617-24.9512C55.7617-22.0703 57.4707-20.5566 59.4727-20.5566ZM47.9004 11.6699L95.6543 11.6699C97.3145 11.6699 98.6816 10.3516 98.6816 8.69141C98.6816 6.98242 97.3145 5.61523 95.6543 5.61523L47.9004 5.61523C46.1914 5.61523 44.8242 6.98242 44.8242 8.69141C44.8242 10.3516 46.1914 11.6699 47.9004 11.6699Z"/>
  </g>
  <g id="Thin-M" transform="matrix(1 0 0 1 786.842 1126)">
   <path d="M22.3633-3.36914L116.748-3.36914C123.34-3.36914 126.709-6.68945 126.709-13.3301L126.709-69.9707C126.709-76.5625 123.34-79.8828 116.748-79.8828L22.3633-79.8828C15.7715-79.8828 12.4512-76.5625 12.4512-69.9707L12.4512-13.3301C12.4512-6.68945 15.7715-3.36914 22.3633-3.36914ZM22.5586-7.03125C18.2129-7.03125 16.0645-9.08203 16.0645-13.4277L16.0645-69.8242C16.0645-74.2188 18.2129-76.2695 22.5586-76.2695L116.602-76.2695C120.947-76.2695 123.047-74.2188 123.047-69.8242L123.047-13.4277C123.047-9.08203 120.947-7.03125 116.602-7.03125ZM56.543-19.4336C57.4219-19.4336 58.3008-19.873 59.082-20.3125L90.4785-38.7695C91.6504-39.4531 92.334-40.4297 92.334-41.6992C92.334-42.9199 91.6992-43.7988 90.4785-44.5312L59.082-62.9883C58.3008-63.4277 57.4219-63.8672 56.543-63.8672C54.8828-63.8672 53.3203-62.6465 53.3203-60.0098L53.3203-23.3398C53.3203-20.7031 54.8828-19.4336 56.543-19.4336ZM46.4844 9.32617L92.627 9.32617C93.7012 9.32617 94.5312 8.54492 94.5312 7.4707C94.5312 6.44531 93.7012 5.66406 92.627 5.66406L46.4844 5.66406C45.459 5.66406 44.6289 6.44531 44.6289 7.4707C44.6289 8.54492 45.459 9.32617 46.4844 9.32617Z"/>
  </g>
  <g id="Ultralight-M" transform="matrix(1 0 0 1 491.254 1126)">
   <path d="M21.6309-3.4668L115.283-3.4668C121.338-3.4668 124.463-6.5918 124.463-12.6465L124.463-69.4824C124.463-75.5859 121.338-78.6621 115.283-78.6621L21.6309-78.6621C15.5273-78.6621 12.4512-75.5859 12.4512-69.4824L12.4512-12.6465C12.4512-6.5918 15.5273-3.4668 21.6309-3.4668ZM21.7773-5.85938C17.1875-5.85938 14.8438-8.1543 14.8438-12.793L14.8438-69.3848C14.8438-74.0234 17.1875-76.2695 21.7773-76.2695L115.088-76.2695C119.727-76.2695 122.07-74.0234 122.07-69.3848L122.07-12.793C122.07-8.1543 119.727-5.85938 115.088-5.85938ZM55.0293-18.8965C55.8594-18.8965 56.7383-19.3359 57.4219-19.6777L89.5508-38.623C90.4785-39.1602 91.1133-39.9414 91.1133-41.1133C91.1133-42.2363 90.5273-42.9688 89.5508-43.6035L57.4219-62.5C56.7383-62.8906 55.8594-63.3301 55.0293-63.3301C53.5645-63.3301 52.0996-62.207 52.0996-59.7168L52.0996-22.4609C52.0996-20.0195 53.5645-18.8965 55.0293-18.8965ZM45.8008 8.05664L91.1133 8.05664C91.8457 8.05664 92.3828 7.61719 92.3828 6.88477C92.3828 6.15234 91.8457 5.66406 91.1133 5.66406L45.8008 5.66406C45.0684 5.66406 44.5312 6.15234 44.5312 6.88477C44.5312 7.61719 45.0684 8.05664 45.8008 8.05664Z"/>
  </g>
  <g id="Black-S" transform="matrix(1 0 0 1 2870.9 696)">
   <path d="M23.877-5.81055L101.123-5.81055C110.01-5.81055 115.234-11.0352 115.234-19.9219L115.234-65.2832C115.234-74.1699 110.01-79.3945 101.123-79.3945L23.877-79.3945C14.9902-79.3945 9.76562-74.1699 9.76562-65.2832L9.76562-19.9219C9.76562-11.0352 14.9902-5.81055 23.877-5.81055ZM25.9277-18.8965C23.877-18.8965 22.8516-19.7266 22.8516-21.9727L22.8516-63.2324C22.8516-65.4785 23.877-66.3086 25.9277-66.3086L99.0723-66.3086C101.123-66.3086 102.148-65.4785 102.148-63.2324L102.148-21.9727C102.148-19.7266 101.123-18.8965 99.0723-18.8965ZM53.6133-25C54.7852-25 55.8594-25.293 56.9336-25.8789L77.6855-37.9395C79.541-39.0137 81.0547-40.4297 81.0547-42.6758C81.0547-44.873 79.6387-46.1426 77.6855-47.3145L56.9336-59.375C55.8594-59.9609 54.7363-60.2539 53.5645-60.2539C50.9766-60.2539 48.8281-58.3496 48.8281-55.0293L48.8281-30.2246C48.8281-26.9531 51.0254-25 53.6133-25ZM41.3086 9.57031L83.6914 9.57031C86.6699 9.57031 89.0137 7.03125 89.0137 4.29688C89.0137 1.5625 86.6699-0.976562 83.6914-0.976562L41.3086-0.976562C38.3301-0.976562 35.9863 1.5625 35.9863 4.29688C35.9863 7.03125 38.3301 9.57031 41.3086 9.57031Z"/>
  </g>
  <g id="Heavy-S" transform="matrix(1 0 0 1 2575.17 696)">
   <path d="M22.998-6.78711L100.049-6.78711C108.447-6.78711 113.281-11.5723 113.281-20.0195L113.281-64.9902C113.281-73.4375 108.447-78.2227 100.049-78.2227L22.998-78.2227C14.5508-78.2227 9.76562-73.4375 9.76562-64.9902L9.76562-20.0195C9.76562-11.5723 14.5508-6.78711 22.998-6.78711ZM24.5605-18.457C22.4609-18.457 21.4355-19.2871 21.4355-21.582L21.4355-63.3789C21.4355-65.7227 22.4609-66.5527 24.5605-66.5527L98.4375-66.5527C100.586-66.5527 101.611-65.7227 101.611-63.3789L101.611-21.582C101.611-19.2871 100.586-18.457 98.4375-18.457ZM52.5879-24.9512C53.7109-24.9512 54.7363-25.2441 55.7617-25.8301L76.8066-38.0859C78.6621-39.1602 79.9805-40.5273 79.9805-42.5781C79.9805-44.5312 78.7109-45.8008 76.8066-46.9238L55.7617-59.2285C54.7363-59.7656 53.7109-60.0586 52.5879-60.0586C50.1465-60.0586 48.1445-58.3008 48.1445-55.1758L48.1445-29.8828C48.1445-26.7578 50.1953-24.9512 52.5879-24.9512ZM40.7227 8.20312L82.3242 8.20312C85.0586 8.20312 87.207 5.9082 87.207 3.36914C87.207 0.78125 85.0586-1.51367 82.3242-1.51367L40.7227-1.51367C37.9883-1.51367 35.8398 0.78125 35.8398 3.36914C35.8398 5.9082 37.9883 8.20312 40.7227 8.20312Z"/>
  </g>
  <g id="Bold-S" transform="matrix(1 0 0 1 2279.55 696)">
   <path d="M22.0215-7.86133L98.8281-7.86133C106.738-7.86133 111.084-12.1094 111.084-20.1172L111.084-64.6484C111.084-72.6562 106.738-76.9043 98.8281-76.9043L22.0215-76.9043C14.1113-76.9043 9.76562-72.6562 9.76562-64.6484L9.76562-20.1172C9.76562-12.1094 14.1113-7.86133 22.0215-7.86133ZM23.0957-17.9199C20.8496-17.9199 19.8242-18.7988 19.8242-21.1914L19.8242-63.5742C19.8242-65.9668 20.8496-66.8457 23.0957-66.8457L97.7539-66.8457C100-66.8457 101.025-65.9668 101.025-63.5742L101.025-21.1914C101.025-18.7988 100-17.9199 97.7539-17.9199ZM51.5137-24.9023C52.5391-24.9023 53.4668-25.1953 54.4922-25.7812L75.8789-38.2812C77.6367-39.3066 78.7598-40.625 78.7598-42.4316C78.7598-44.1895 77.6855-45.4102 75.8789-46.4844L54.4922-59.0332C53.4668-59.5703 52.5391-59.8633 51.4648-59.8633C49.2188-59.8633 47.4121-58.252 47.4121-55.2734L47.4121-29.4922C47.4121-26.5625 49.2676-24.9023 51.5137-24.9023ZM40.0879 6.68945L80.7617 6.68945C83.2031 6.68945 85.1562 4.63867 85.1562 2.29492C85.1562-0.0488281 83.2031-2.09961 80.7617-2.09961L40.0879-2.09961C37.6465-2.09961 35.6445-0.0488281 35.6445 2.29492C35.6445 4.63867 37.6465 6.68945 40.0879 6.68945Z"/>
  </g>
  <g id="Semibold-S" transform="matrix(1 0 0 1 1983.6 696)">
   <path d="M21.3379-8.64258L97.998-8.64258C105.518-8.64258 109.57-12.5 109.57-20.166L109.57-64.4043C109.57-72.0703 105.518-75.9766 97.998-75.9766L21.3379-75.9766C13.7695-75.9766 9.76562-72.0703 9.76562-64.4043L9.76562-20.166C9.76562-12.5 13.7695-8.64258 21.3379-8.64258ZM22.0703-17.5781C19.7754-17.5781 18.75-18.5059 18.75-20.8984L18.75-63.6719C18.75-66.1133 19.7754-66.9922 22.0703-66.9922L97.2656-66.9922C99.5605-66.9922 100.586-66.1133 100.586-63.6719L100.586-20.8984C100.586-18.5059 99.5605-17.5781 97.2656-17.5781ZM50.7324-24.8535C51.7578-24.8535 52.5879-25.1953 53.5645-25.7324L75.1953-38.4277C76.9531-39.4531 77.9297-40.6738 77.9297-42.334C77.9297-43.9453 77.002-45.1172 75.1953-46.1914L53.5645-58.8867C52.5879-59.4238 51.709-59.7168 50.6836-59.7168C48.584-59.7168 46.9238-58.2031 46.9238-55.3711L46.9238-29.248C46.9238-26.4648 48.6328-24.8535 50.7324-24.8535ZM39.6484 5.66406L79.6875 5.66406C81.9336 5.66406 83.7891 3.75977 83.7891 1.5625C83.7891-0.634766 81.9336-2.53906 79.6875-2.53906L39.6484-2.53906C37.3535-2.53906 35.5469-0.634766 35.5469 1.5625C35.5469 3.75977 37.3535 5.66406 39.6484 5.66406Z"/>
  </g>
  <g id="Medium-S" transform="matrix(1 0 0 1 1687.47 696)">
   <path d="M20.8008-9.17969L97.3633-9.17969C104.639-9.17969 108.398-12.8418 108.398-20.2148L108.398-64.2578C108.398-71.6797 104.639-75.293 97.3633-75.293L20.8008-75.293C13.5254-75.293 9.76562-71.6797 9.76562-64.2578L9.76562-20.2148C9.76562-12.8418 13.5254-9.17969 20.8008-9.17969ZM21.2402-17.334C18.8965-17.334 17.8711-18.2129 17.8711-20.7031L17.8711-63.7695C17.8711-66.2598 18.8965-67.1387 21.2402-67.1387L96.9238-67.1387C99.2676-67.1387 100.293-66.2598 100.293-63.7695L100.293-20.7031C100.293-18.2129 99.2676-17.334 96.9238-17.334ZM50.1465-24.8535C51.123-24.8535 51.9043-25.1465 52.8809-25.6836L74.707-38.5254C76.416-39.502 77.2949-40.7227 77.2949-42.2363C77.2949-43.75 76.4648-44.9219 74.707-45.9961L52.8809-58.7891C51.9043-59.3262 51.123-59.6191 50.0977-59.6191C48.1445-59.6191 46.5332-58.1543 46.5332-55.4688L46.5332-29.0039C46.5332-26.3184 48.1445-24.8535 50.1465-24.8535ZM39.3066 4.83398L78.8574 4.83398C81.0059 4.83398 82.7148 3.07617 82.7148 1.02539C82.7148-1.07422 81.0059-2.83203 78.8574-2.83203L39.3066-2.83203C37.1582-2.83203 35.4492-1.07422 35.4492 1.02539C35.4492 3.07617 37.1582 4.83398 39.3066 4.83398Z"/>
  </g>
  <g id="Regular-S" transform="matrix(1 0 0 1 1391.52 696)">
   <path d="M20.1172-9.91211L96.5332-9.91211C103.467-9.91211 106.885-13.2324 106.885-20.3125L106.885-64.0137C106.885-71.0938 103.467-74.3652 96.5332-74.3652L20.1172-74.3652C13.2324-74.3652 9.76562-71.0938 9.76562-64.0137L9.76562-20.3125C9.76562-13.2324 13.2324-9.91211 20.1172-9.91211ZM20.2148-16.9922C17.8223-16.9922 16.7969-17.9199 16.7969-20.4102L16.7969-63.916C16.7969-66.4062 17.8223-67.334 20.2148-67.334L96.4355-67.334C98.8281-67.334 99.8535-66.4062 99.8535-63.916L99.8535-20.4102C99.8535-17.9199 98.8281-16.9922 96.4355-16.9922ZM49.3652-24.8047C50.3418-24.8047 51.0742-25.0977 52.002-25.6348L74.0723-38.623C75.7812-39.6484 76.4648-40.8203 76.4648-42.1387C76.4648-43.5059 75.7812-44.6289 74.0723-45.7031L52.002-58.6914C51.0742-59.1797 50.3418-59.4727 49.3652-59.4727C47.5098-59.4727 45.9961-58.1055 45.9961-55.5664L45.9961-28.7598C45.9961-26.2207 47.5098-24.8047 49.3652-24.8047ZM38.8672 3.80859L77.832 3.80859C79.7363 3.80859 81.3477 2.24609 81.3477 0.292969C81.3477-1.66016 79.7363-3.27148 77.832-3.27148L38.8672-3.27148C36.9141-3.27148 35.3516-1.66016 35.3516 0.292969C35.3516 2.24609 36.9141 3.80859 38.8672 3.80859Z"/>
  </g>
  <g id="Light-S" transform="matrix(1 0 0 1 1096.27 696)">
   <path d="M19.1406-10.0586L94.5801-10.0586C100.83-10.0586 103.955-13.0859 103.955-19.4336L103.955-63.4277C103.955-69.7754 100.83-72.8027 94.5801-72.8027L19.1406-72.8027C12.8906-72.8027 9.76562-69.7754 9.76562-63.4277L9.76562-19.4336C9.76562-13.0859 12.8906-10.0586 19.1406-10.0586ZM19.2383-15.4785C16.4551-15.4785 15.1855-16.6992 15.1855-19.5312L15.1855-63.3301C15.1855-66.1621 16.4551-67.334 19.2383-67.334L94.4824-67.334C97.2656-67.334 98.5352-66.1621 98.5352-63.3301L98.5352-19.5312C98.5352-16.6992 97.2656-15.4785 94.4824-15.4785ZM47.4121-24.0723C48.291-24.0723 48.9746-24.3652 49.8047-24.8535L72.8516-38.3789C74.2188-39.209 74.9023-40.2344 74.9023-41.4551C74.9023-42.627 74.2676-43.6035 72.8516-44.4824L49.8047-58.0078C48.9746-58.4961 48.291-58.7891 47.4121-58.7891C45.752-58.7891 44.3848-57.5684 44.3848-55.2246L44.3848-27.6855C44.3848-25.293 45.752-24.0723 47.4121-24.0723ZM37.9395 2.24609L75.8301 2.24609C77.2949 2.24609 78.5645 1.02539 78.5645-0.488281C78.5645-2.00195 77.2949-3.22266 75.8301-3.22266L37.9395-3.22266C36.4258-3.22266 35.2051-2.00195 35.2051-0.488281C35.2051 1.02539 36.4258 2.24609 37.9395 2.24609Z"/>
  </g>
  <g id="Thin-S" transform="matrix(1 0 0 1 801.491 696)">
   <path d="M17.8223-10.2539L92.041-10.2539C97.4121-10.2539 100.098-12.8906 100.098-18.3105L100.098-62.5977C100.098-68.0176 97.4121-70.6543 92.041-70.6543L17.8223-70.6543C12.5-70.6543 9.76562-68.0176 9.76562-62.5977L9.76562-18.3105C9.76562-12.8906 12.5-10.2539 17.8223-10.2539ZM17.9688-13.5254C14.6484-13.5254 13.0859-15.0879 13.0859-18.4082L13.0859-62.5C13.0859-65.8203 14.6484-67.3828 17.9688-67.3828L91.8945-67.3828C95.2148-67.3828 96.8262-65.8203 96.8262-62.5L96.8262-18.4082C96.8262-15.0879 95.2148-13.5254 91.8945-13.5254ZM44.8242-23.0957C45.5566-23.0957 46.2402-23.4375 46.9238-23.7793L71.2402-38.0859C72.2168-38.6719 72.7539-39.4531 72.7539-40.4785C72.7539-41.5039 72.2656-42.2363 71.2402-42.8711L46.9238-57.1777C46.2402-57.5195 45.5566-57.8613 44.8242-57.8613C43.5059-57.8613 42.2363-56.8359 42.2363-54.7363L42.2363-26.2207C42.2363-24.1211 43.5059-23.0957 44.8242-23.0957ZM36.7188 0.0976562L73.1445 0.0976562C74.1211 0.0976562 74.8535-0.585938 74.8535-1.51367C74.8535-2.49023 74.1211-3.22266 73.1445-3.22266L36.7188-3.22266C35.791-3.22266 35.0098-2.49023 35.0098-1.51367C35.0098-0.585938 35.791 0.0976562 36.7188 0.0976562Z"/>
  </g>
  <g id="Ultralight-S" transform="matrix(1 0 0 1 505.78 696)">
   <path d="M17.1387-10.3516L90.7227-10.3516C95.6055-10.3516 98.0957-12.793 98.0957-17.7246L98.0957-62.207C98.0957-67.0898 95.6055-69.5801 90.7227-69.5801L17.1387-69.5801C12.2559-69.5801 9.76562-67.0898 9.76562-62.207L9.76562-17.7246C9.76562-12.793 12.2559-10.3516 17.1387-10.3516ZM17.2852-12.5488C13.7207-12.5488 11.9629-14.2578 11.9629-17.8223L11.9629-62.1094C11.9629-65.6738 13.7207-67.3828 17.2852-67.3828L90.5762-67.3828C94.1406-67.3828 95.8984-65.6738 95.8984-62.1094L95.8984-17.8223C95.8984-14.2578 94.1406-12.5488 90.5762-12.5488ZM43.5059-22.5586C44.1895-22.5586 44.873-22.9004 45.4102-23.2422L70.4102-37.9395C71.1914-38.3789 71.6797-39.0625 71.6797-39.9902C71.6797-40.918 71.2402-41.5039 70.4102-42.041L45.4102-56.7383C44.873-57.0312 44.1895-57.373 43.5059-57.373C42.334-57.373 41.1133-56.4941 41.1133-54.4922L41.1133-25.4883C41.1133-23.4863 42.334-22.5586 43.5059-22.5586ZM36.084-0.976562L71.7773-0.976562C72.4609-0.976562 72.9492-1.41602 72.9492-2.05078C72.9492-2.73438 72.4609-3.17383 71.7773-3.17383L36.084-3.17383C35.4492-3.17383 34.9121-2.73438 34.9121-2.05078C34.9121-1.41602 35.4492-0.976562 36.084-0.976562Z"/>
  </g>
 </g>
</svg>
