<svg xmlns="http://www.w3.org/2000/svg" viewBox="0 0 1000 450"><g id="TYPO"><path d="M651.53,314.7H76.7a.93.93,0,0,1-.33,0,1.14,1.14,0,0,1-.44-.18,1.33,1.33,0,0,1-.43-.42,1.41,1.41,0,0,1-.22-.59,1.56,1.56,0,0,1,0-.43,1.42,1.42,0,0,1,.11-.35l44.42-99.82.06-.12,44.41-99.82a1.17,1.17,0,0,1,.15-.27,1.5,1.5,0,0,1,.27-.29,1.45,1.45,0,0,1,.84-.3h87.57a37.94,37.94,0,0,1,74.45-8.83,37.94,37.94,0,0,1,73.07,0,37.93,37.93,0,0,1,74.44,8.83H792.49a19.67,19.67,0,1,1,20.21,0h61.82a1.4,1.4,0,0,1,0,2.8,48.56,48.56,0,1,0,0,97.11,51.36,51.36,0,1,1,0,102.71h-223Zm173-2.8h50a48.56,48.56,0,1,0,0-97.11,51.36,51.36,0,0,1-16.74-99.91H804v197Zm-49.1,0h25.73v-197H731.76A63,63,0,0,1,716,238.07Zm-122.53,0H771.87l-59.8-74.29a1.4,1.4,0,0,1,1.09-2.28,60.23,60.23,0,1,0,0-120.45H652.93Zm-177.07,0H649.38l-43.22-97.11H519.07Zm-73.82,0H472.3V113.47a35.13,35.13,0,1,0-70.26,0Zm-73.07,0h70.27V113.47a35.14,35.14,0,0,0-70.27,0Zm-73.07,0h70.27V113.47a35.14,35.14,0,0,0-70.27,0h0Zm-177.07,0H252.34l-43.21-97.11H122Zm530.4-97.11,40.9,91.92V214.79Zm-134.13,0v91.92L516,214.79Zm-262.9,0,40.9,91.92V214.79ZM608,212h42.15V114.88H564.77Zm-87.66,0h84.6l-42.3-95.07Zm-45.22,0h42.15l43.21-97.11H475.1ZM211,212H253.1V114.88H167.74Zm-87.67,0h84.61l-42.31-95.07ZM802.59,78.34a16.87,16.87,0,1,0,16.87,16.87A16.89,16.89,0,0,0,802.59,78.34Z"/><path d="M319.45,359.58A16.32,16.32,0,0,0,307,353.77c-9.47,0-16.55,7.58-16.55,16.94,0,11,9.13,16.66,16.6,16.66a17.15,17.15,0,0,0,12.4-5.59V385a18.54,18.54,0,0,1-12.29,4.6,19,19,0,1,1-.11-38,18,18,0,0,1,12.4,4.82Z"/><path d="M374.15,370.6A19.16,19.16,0,1,1,355,351.55,18.85,18.85,0,0,1,374.15,370.6Zm-2.55,0c0-9.47-7.08-16.83-16.6-16.83s-16.61,7.36-16.61,16.83a16.61,16.61,0,1,0,33.21,0Z"/><path d="M393.75,389V351.67l31,32.44V352.05h2.44v37.87l-31-32.44V389Z"/><path d="M465.61,358.31a7.89,7.89,0,0,0-7.25-4.54,6.56,6.56,0,0,0-6.86,6.86c0,4,2.76,5.32,6.47,7.15s5.48,2.54,7.36,3.87a8.12,8.12,0,0,1,3.94,7.14c0,6.2-5.21,10.8-11.52,10.8a10.53,10.53,0,0,1-8.58-3.88,12.08,12.08,0,0,1-2.38-4l2.1-1a12.77,12.77,0,0,0,2,3.55,8.88,8.88,0,0,0,6.92,3.15,8.58,8.58,0,0,0,8.91-8.52c0-2-.78-4.1-3.6-5.82-1.05-.61-3.21-1.71-6.25-3.21-3.66-1.77-5.49-2.76-6.76-4.87a7.94,7.94,0,0,1-1.16-4.21,9,9,0,0,1,9.46-9.19,9.91,9.91,0,0,1,9,5.26Z"/><path d="M491.3,352.05v23.09c0,3.49.17,5.76,1.55,8,2.16,3.49,6.2,4.26,8.58,4.26s6.42-.77,8.58-4.26c1.39-2.21,1.55-4.48,1.55-8V352.05H514v23.09c0,4-.22,6.7-2.11,9.46-2.76,4-7.14,5-10.46,5s-7.69-.94-10.46-5c-1.88-2.76-2.1-5.42-2.1-9.46V352.05Z"/><path d="M538,352.05v34.71h10.29V389H535.59V352.05Z"/><path d="M572.35,354.27V389h-2.43V354.27h-9.58v-2.22h21.59v2.22Z"/><path d="M601.75,352.05V389h-2.44V352.05Z"/><path d="M623.29,389V351.67l31,32.44V352.05h2.43v37.87l-31-32.44V389Z"/><path d="M697.58,371.26h15.5c0,3.38-.72,8.25-3.76,12.13-3.27,4.15-8.25,6.2-13.9,6.2-10.85,0-19.1-8-19.1-19s8.53-19.05,19.27-19.05a17.94,17.94,0,0,1,11.57,4,21.39,21.39,0,0,1,4.43,4.65l-1.94,1.55a17.12,17.12,0,0,0-3.54-4.1,16.59,16.59,0,0,0-27.24,13.07,16.3,16.3,0,0,0,16.5,16.66c6.31,0,10.85-3.21,12.84-6.25a16.54,16.54,0,0,0,2.44-7.64H697.58Z"/><path d="M755.48,376.13a3.92,3.92,0,1,0-3.92-3.92,3.92,3.92,0,0,0,3.92,3.92"/><path d="M245.66,376.13a3.92,3.92,0,1,0-3.92-3.92,3.92,3.92,0,0,0,3.92,3.92"/></g></svg>